<?xml version="1.0" encoding="UTF-8" standalone="no"?>
<svg xmlns="http://www.w3.org/2000/svg" version="1.1" width="8.022924882897858in" height="1in" viewBox="0 0 577.6505915686457 72">
  Untitled Project - Component A
  <g>
    <g>
      <g>
        <g>
          <path d="M0 0 L144.21153675426137 0 L144.21153675426137 72 L0 72 L0 0 Z " fill="none" stroke="#000000" stroke-width="0.72" />
          <g>

          </g>
        </g>
        <g>
          <path d="M18.72 17.28 L54.72 17.28 L54.72 53.28 L18.72 53.28 L18.72 17.28 Z " fill="none" stroke="#000000" stroke-width="0.72" />
          <g>

          </g>
        </g>
        <g>
          <path d="M36.00000000000003 25.199999999999996 L46.27141037598767 32.66261646075057 L42.348080724758745 44.737383539249436 L29.651919275241312 44.737383539249436 L25.728589624012386 32.66261646075057 L36.00000000000003 25.199999999999996 Z " fill="#000000" fill-rule="evenodd" stroke="#000000" stroke-width="0.72" />
        </g>
        <g>
          <path d="M50.400000000000034 36 C50.400000000000034 43.9475763527136 43.947576352713625 50.400000000000006 36.00000000000003 50.400000000000006 C28.052423647286428 50.400000000000006 21.600000000000023 43.9475763527136 21.600000000000023 36 C21.600000000000023 28.0524236472864 28.052423647286428 21.6 36.00000000000003 21.6 C43.947576352713625 21.6 50.400000000000034 28.0524236472864 50.400000000000034 36 Z " fill="none" stroke="#000000" stroke-width="0.72" />
        </g>
        <g>
          <path d="M90.72000000000003 18 L126.72000000000003 18 L126.72000000000003 54 L90.72000000000003 54 L90.72000000000003 18 Z " fill="none" stroke="#000000" stroke-width="0.72" />
          <g>

          </g>
        </g>
        <g>
          <path d="M122.40000000000002 36 C122.40000000000002 43.9475763527136 115.94757635271363 50.400000000000006 108.00000000000003 50.400000000000006 C100.05242364728643 50.400000000000006 93.60000000000004 43.9475763527136 93.60000000000004 36 C93.60000000000004 28.0524236472864 100.05242364728643 21.6 108.00000000000003 21.6 C115.94757635271363 21.6 122.40000000000002 28.0524236472864 122.40000000000002 36 Z " fill="#000000" fill-rule="evenodd" stroke="#000000" stroke-width="0.72" />
        </g>
        <g>
          <path d="M108.00000000000003 46.8 L97.72858962401237 39.33738353924944 L101.65191927524133 27.26261646075057 L114.34808072475873 27.262616460750564 L118.27141037598768 39.33738353924943 L108.00000000000003 46.8 Z " fill="#ffffff" fill-rule="evenodd" stroke="#000000" stroke-width="0.72" />
        </g>
        <g>
          <g>
            <path d="M64.93126509426295 32.064270425149765 C64.82806657019152 32.155626495639225 64.77646730815582 32.302811275872244 64.77646730815582 32.50582476584883 C64.77646730815582 32.705454904175134 64.82806659600602 32.85263968440816 64.93126509426295 32.9473791065479 C65.03446359251988 33.04211852868764 65.16219293911134 33.0894885495315 65.31445305659378 33.0894885495315 C65.45656249957739 33.0894885495315 65.58090826218802 33.04211852868764 65.68749034442573 32.9473791065479 C65.79407242666343 32.85263947789216 65.84736346778229 32.705454697659135 65.84736346778229 32.50582476584883 C65.84736346778229 32.302811275872244 65.79407242666343 32.155626495639225 65.68749034442573 32.064270425149765 C65.58090826218802 31.972914354660304 65.45656249957739 31.92723631941557 65.31445305659378 31.92723631941557 C65.16219293911134 31.92723631941557 65.03446361833439 31.972914354660304 64.93126509426295 32.064270425149765 Z M65.76108273454227 39.58592022878215 L65.76108273454227 34.01319992892496 L64.84752202964762 34.01319992892496 L64.84752202964762 39.58592022878215 L65.76108273454227 39.58592022878215 Z " fill="#000000" fill-rule="evenodd" stroke="#000000" stroke-width="0.72" />
            <path d="M70.57250244698727 39.258560976194914 C70.96161163610905 38.97265031114456 71.15616623066992 38.569160999816106 71.15616623066992 38.048093042209544 C71.15616623066992 37.78755901177726 71.10372087257664 37.564244172803015 70.99883077593807 37.37814852528682 C70.8939406792995 37.19205287777062 70.7306835847447 37.02456674853993 70.5090607313696 36.87569013759477 C70.2874376714785 36.726813578278616 69.944852407143 36.56609456538049 69.48130493836314 36.39353309890039 C68.86211379393455 36.15668402726104 68.46792926756338 35.97143421765741 68.29875135924956 35.83778367008949 C68.12957345093575 35.704133122521576 68.0449844967788 35.535801103749336 68.0449844967788 35.33278761377275 C68.0449844967788 35.123007110721616 68.1431075803428 34.95805865011564 68.33935405724483 34.83794223195483 C68.53560053414687 34.717825813794015 68.82320277176436 34.65776775960061 69.20216138964531 34.65776775960061 C69.65555839044235 34.65776775960061 70.16478348143497 34.776192192162284 70.72983790171912 35.01304136705963 L71.0394334739334 34.287268140393344 C70.48791349283034 34.036884836088895 69.89579081373198 33.91169318393666 69.2630654366383 33.91169318393666 C68.61342226871324 33.91169318393666 68.10250498560549 34.04365195242145 67.7303135873151 34.30756948939101 C67.3581221890247 34.571487026360565 67.1720264898795 34.93183597106899 67.1720264898795 35.3886163235163 C67.1720264898795 35.64576684741131 67.22193386957406 35.86400634913613 67.32174893873722 36.04333482869078 C67.42156400790037 36.22266330824543 67.57805346983267 36.38422841720113 67.79121763430808 36.528029536009875 C68.0043817987835 36.671830758076624 68.37318963890759 36.84523811409829 68.89764115468043 37.04825160407487 C69.41194199595444 37.2444979777189 69.7697532720382 37.418751223282136 69.97107498293164 37.57101134076457 C70.17239648730909 37.723271458247005 70.27305754927178 37.90936710576321 70.27305754927178 38.12929843820017 C70.27305754927178 38.37968171669012 70.16816745263321 38.57931170012943 69.95838663980808 38.728188233631094 C69.74860603349894 38.87706479294725 69.41363377503761 38.95150307260533 68.95346986442402 38.95150307260533 C68.3850320924896 38.95150307260533 67.79460129573233 38.80262653910367 67.18217716437832 38.50487339465685 L67.18217716437832 39.33722870356084 C67.61527260966169 39.57069421703391 68.19893639334438 39.68742697377044 68.93316851542636 39.68742697377044 C69.63694861401184 39.68742697377044 70.18339325786549 39.544471641245266 70.57250244698727 39.258560976194914 Z " fill="#000000" fill-rule="evenodd" stroke="#000000" stroke-width="0.72" />

            <path d="M77.48511178068989 38.9058250373606 C77.32608495990691 38.92950997033903 77.18735824902558 38.9413523981065 77.0689341262379 38.9413523981065 C76.79486591476952 38.9413523981065 76.58085544772055 38.85507166486646 76.42690396418698 38.68251019838636 C76.2729524806534 38.50994873190626 76.19597611933861 38.262949037397085 76.19597611933861 37.94151095997183 L76.19597611933861 34.723747143843 L77.80485802740301 34.723747143843 L77.80485802740301 34.01319992892496 L76.19597611933861 34.01319992892496 L76.19597611933861 32.734214942072484 L75.65291503365123 32.734214942072484 L75.28749075169338 33.921843858435494 L74.49066280353532 34.287268140393344 L74.49066280353532 34.723747143843 L75.27734007719457 34.723747143843 L75.27734007719457 37.96688764621891 C75.27734007719457 39.1139138645866 75.82209252893306 39.68742697377044 76.91159867150606 39.68742697377044 C77.09431081248498 39.68742697377044 77.27448528483919 39.66966329339749 77.4521220885687 39.63413593265159 C77.62975889229821 39.598608571905686 77.76087135820943 39.56223532242492 77.84546072539834 39.52501618178918 L77.84546072539834 38.824619641369964 C77.7642553294077 38.85507166486645 77.64413860147287 38.88214010438217 77.48511178068989 38.9058250373606 Z " fill="#000000" fill-rule="evenodd" stroke="#000000" stroke-width="0.72" />
            <path d="M83.10858545304123 38.92105104910884 C83.56874936365482 38.41013376600111 83.79883131896162 37.69958655108307 83.79883131896162 36.78940940435473 C83.79883131896162 35.90291716479032 83.56790347411324 35.20167473482953 83.10604778441652 34.685682114472385 C82.6441920947198 34.16968949411524 82.02077150258339 33.91169318393666 81.23578600800727 33.91169318393666 C80.41696534480039 33.91169318393666 79.78085558347641 34.16461436338183 79.32745920222737 34.670456102724145 C78.87406240794634 35.17629804858247 78.64736401080583 35.88261581579266 78.64736401080583 36.78940940435473 C78.64736401080583 37.37138135732526 78.7522547269924 37.882298743690995 78.96203492026953 38.322161253677926 C79.17181552657867 38.76202381529386 79.47126042429413 39.099533742379926 79.86036961341591 39.334691034936135 C80.2494788025377 39.569848327492345 80.69610848048619 39.68742697377044 81.20025864726136 39.68742697377044 C82.0123126071677 39.68742697377044 82.64842154242764 39.43196833221657 83.10858545304123 38.92105104910884 Z M80.00501672502423 38.385602969295604 C79.72925714750471 38.021870518049894 79.59137673919696 37.48980594477394 79.59137673919696 36.78940940435473 C79.59137673919696 35.38184931044176 80.13105385368601 34.678069108598265 81.21040932176018 34.678069108598265 C81.74839507019813 34.678069108598265 82.15695971877602 34.85485991952821 82.43610326749382 35.20844185116209 C82.71524681621162 35.56202367953797 82.85481859057052 36.089012863935515 82.85481859057052 36.78940940435473 C82.85481859057052 37.48980594477394 82.71609311878517 38.021870518049894 82.4386409361185 38.385602969295604 C82.16118875345184 38.749335497984816 81.75685437864581 38.93120172360767 81.22563533350842 38.93120172360767 C80.68764958507047 38.93120172360767 80.28077630254376 38.749335497984816 80.00501672502423 38.385602969295604 Z " fill="#000000" fill-rule="evenodd" stroke="#000000" stroke-width="0.72" />
          </g>
        </g>
      </g>
      <g>
        <g>
          <path d="M216.48627485795456 0 L577.6505915686457 0 L577.6505915686457 72 L216.48627485795456 72 L216.48627485795456 0 Z " fill="none" stroke="#000000" stroke-width="0.72" />
          <g>

          </g>
        </g>
        <g>
          <path d="M235.20627485795455 17.28 L271.20627485795455 17.28 L271.20627485795455 53.28 L235.20627485795455 53.28 L235.20627485795455 17.28 Z " fill="none" stroke="#000000" stroke-width="0.72" />
          <g>

          </g>
        </g>
        <g>
          <path d="M252.48627485795456 25.199999999999996 L261.8393492188265 41.4 L243.1332004970826 41.400000000000006 L252.48627485795456 25.199999999999996 Z " fill="#000000" fill-rule="evenodd" stroke="#000000" stroke-width="0.72" />
        </g>
        <g>
          <path d="M266.88627485795456 36 C266.88627485795456 43.9475763527136 260.43385121066814 50.400000000000006 252.48627485795456 50.400000000000006 C244.53869850524094 50.400000000000006 238.08627485795455 43.9475763527136 238.08627485795455 36 C238.08627485795455 28.0524236472864 244.53869850524094 21.6 252.48627485795456 21.6 C260.43385121066814 21.6 266.88627485795456 28.0524236472864 266.88627485795456 36 Z " fill="none" stroke="#000000" stroke-width="0.72" />
        </g>
        <g>
          <path d="M307.20627485795455 18 L343.20627485795455 18 L343.20627485795455 54 L307.20627485795455 54 L307.20627485795455 18 Z " fill="none" stroke="#000000" stroke-width="0.72" />
          <g>

          </g>
        </g>
        <g>
          <path d="M338.88627485795456 36 C338.88627485795456 43.9475763527136 332.43385121066814 50.400000000000006 324.4862748579545 50.400000000000006 C316.5386985052409 50.400000000000006 310.08627485795455 43.9475763527136 310.08627485795455 36 C310.08627485795455 28.0524236472864 316.5386985052409 21.6 324.4862748579545 21.6 C332.43385121066814 21.6 338.88627485795456 28.0524236472864 338.88627485795456 36 Z " fill="#000000" fill-rule="evenodd" stroke="#000000" stroke-width="0.72" />
        </g>
        <g>
          <path d="M335.28627485795454 36 L319.08627485795455 45.35307436087194 L319.08627485795455 26.646925639128064 L335.28627485795454 36 Z " fill="#ffffff" fill-rule="evenodd" stroke="#000000" stroke-width="0.72" />
        </g>
        <g>
          <path d="M360 18 L396 18 L396 54 L360 54 L360 18 Z " fill="none" stroke="#000000" stroke-width="0.72" />
          <g>

          </g>
        </g>
        <g>
          <path d="M392.40000000000003 36 C392.40000000000003 43.9475763527136 385.9475763527136 50.400000000000006 378 50.400000000000006 C370.0524236472864 50.400000000000006 363.6 43.9475763527136 363.6 36 C363.6 28.0524236472864 370.0524236472864 21.6 378 21.6 C385.9475763527136 21.6 392.40000000000003 28.0524236472864 392.40000000000003 36 Z " fill="none" stroke="#000000" stroke-width="0.72" />
        </g>
        <g>
          <path d="M378 46.8 L368.6469256391281 30.6 L387.353074360872 30.599999999999994 L378 46.8 Z " fill="#000000" fill-rule="evenodd" stroke="#000000" stroke-width="0.72" />
        </g>
        <g>
          <path d="M414 18 L450 18 L450 54 L414 54 L414 18 Z " fill="none" stroke="#000000" stroke-width="0.72" />
          <g>

          </g>
        </g>
        <g>
          <path d="M446.40000000000003 36 C446.40000000000003 43.9475763527136 439.9475763527136 50.400000000000006 432 50.400000000000006 C424.0524236472864 50.400000000000006 417.6 43.9475763527136 417.6 36 C417.6 28.0524236472864 424.0524236472864 21.6 432 21.6 C439.9475763527136 21.6 446.40000000000003 28.0524236472864 446.40000000000003 36 Z " fill="#000000" fill-rule="evenodd" stroke="#000000" stroke-width="0.72" />
        </g>
        <g>
          <path d="M432 46.8 L422.6469256391281 30.6 L441.353074360872 30.599999999999994 L432 46.8 Z " fill="#ffffff" fill-rule="evenodd" stroke="#000000" stroke-width="0.72" />
        </g>
        <g>
          <path d="M469.20627485795455 18.72 L505.20627485795455 18.72 L505.20627485795455 54.72 L469.20627485795455 54.72 L469.20627485795455 18.72 Z " fill="none" stroke="#000000" stroke-width="0.72" />
          <g>

          </g>
        </g>
        <g>
          <path d="M500.8862748579546 36.72 C500.8862748579546 44.667576352713596 494.43385121066814 51.120000000000005 486.4862748579545 51.120000000000005 C478.5386985052409 51.120000000000005 472.08627485795455 44.667576352713596 472.08627485795455 36.72 C472.08627485795455 28.7724236472864 478.5386985052409 22.320000000000007 486.4862748579545 22.320000000000007 C494.43385121066814 22.320000000000007 500.8862748579546 28.7724236472864 500.8862748579546 36.72 Z " fill="#000000" fill-rule="evenodd" stroke="#000000" stroke-width="0.72" />
        </g>
        <g>
          <path d="M486.4862748579545 47.52 L476.21486448196686 40.057383539249436 L480.13819413319584 27.98261646075057 L492.8343555827132 27.982616460750563 L496.7576852339422 40.05738353924943 L486.4862748579545 47.52 Z " fill="#ffffff" fill-rule="evenodd" stroke="#000000" stroke-width="0.72" />
        </g>
        <g>
          <path d="M522 18 L558 18 L558 54 L522 54 L522 18 Z " fill="none" stroke="#000000" stroke-width="0.72" />
          <g>

          </g>
        </g>
        <g>
          <path d="M554.4000000000001 36 C554.4000000000001 43.9475763527136 547.9475763527136 50.400000000000006 540 50.400000000000006 C532.0524236472864 50.400000000000006 525.6 43.9475763527136 525.6 36 C525.6 28.0524236472864 532.0524236472864 21.6 540 21.6 C547.9475763527136 21.6 554.4000000000001 28.0524236472864 554.4000000000001 36 Z " fill="none" stroke="#000000" stroke-width="0.72" />
        </g>
        <g>
          <path d="M550.8000000000001 36 L543.3373835392495 46.27141037598766 L531.2626164607506 42.34808072475872 L531.2626164607506 29.651919275241298 L543.3373835392495 25.728589624012336 L550.8000000000001 36 Z " fill="#000000" fill-rule="evenodd" stroke="#000000" stroke-width="0.72" />
        </g>
        <g>
          <g>
            <path d="M281.41753995221745 32.064270425149765 C281.314341428146 32.155626495639225 281.26274216611034 32.302811275872244 281.26274216611034 32.50582476584883 C281.26274216611034 32.705454904175134 281.31434145396054 32.85263968440816 281.41753995221745 32.9473791065479 C281.52073845047437 33.04211852868764 281.6484677970658 33.0894885495315 281.80072791454825 33.0894885495315 C281.94283735753186 33.0894885495315 282.06718312014254 33.04211852868764 282.17376520238025 32.9473791065479 C282.28034728461796 32.85263947789216 282.33363832573684 32.705454697659135 282.33363832573684 32.50582476584883 C282.33363832573684 32.302811275872244 282.28034728461796 32.155626495639225 282.17376520238025 32.064270425149765 C282.06718312014254 31.972914354660304 281.94283735753186 31.92723631941557 281.80072791454825 31.92723631941557 C281.6484677970658 31.92723631941557 281.5207384762889 31.972914354660304 281.41753995221745 32.064270425149765 Z M282.24735759249677 39.58592022878215 L282.24735759249677 34.013199928924955 L281.33379688760215 34.013199928924955 L281.33379688760215 39.58592022878215 L282.24735759249677 39.58592022878215 Z " fill="#000000" fill-rule="evenodd" stroke="#000000" stroke-width="0.72" />
            <path d="M287.05877730494177 39.25856097619491 C287.44788649406354 38.972650311144555 287.6424410886244 38.5691609998161 287.6424410886244 38.04809304220954 C287.6424410886244 37.787559011777255 287.58999573053114 37.56424417280301 287.4851056338926 37.37814852528681 C287.38021553725406 37.192052877770614 287.2169584426992 37.024566748539925 286.9953355893241 36.875690137594766 C286.773712529433 36.72681357827861 286.4311272650975 36.56609456538048 285.96757979631764 36.393533098900384 C285.3483886518891 36.156684027261036 284.9542041255179 35.971434217657404 284.78502621720406 35.837783670089486 C284.61584830889024 35.70413312252157 284.5312593547333 35.53580110374933 284.5312593547333 35.332787613772744 C284.5312593547333 35.12300711072161 284.6293824382973 34.95805865011563 284.82562891519933 34.83794223195482 C285.0218753921014 34.71782581379401 285.30947762971886 34.65776775960061 285.68843624759984 34.65776775960061 C286.1418332483969 34.65776775960061 286.6510583393894 34.776192192162284 287.2161127596736 35.01304136705963 L287.5257083318879 34.287268140393344 C286.97418835078486 34.036884836088895 286.38206567168646 33.91169318393666 285.7493402945928 33.91169318393666 C285.0996971266677 33.91169318393666 284.58877984356 34.04365195242144 284.2165884452696 34.307569489391 C283.8443970469792 34.57148702636056 283.658301347834 34.93183597106899 283.658301347834 35.3886163235163 C283.658301347834 35.64576684741131 283.7082087275286 35.86400634913613 283.8080237966917 36.04333482869078 C283.90783886585484 36.22266330824543 284.06432832778717 36.38422841720113 284.2774924922626 36.528029536009875 C284.490656656738 36.671830758076624 284.85946449686213 36.84523811409828 285.383916012635 37.04825160407486 C285.898216853909 37.24449797771889 286.25602812999267 37.41875122328213 286.45734984088614 37.571011340764564 C286.6586713452636 37.723271458247 286.75933240722634 37.9093671057632 286.75933240722634 38.129298438200166 C286.75933240722634 38.379681716690115 286.65444231058774 38.57931170012942 286.4446614977626 38.72818823363109 C286.23488089145343 38.877064792947245 285.8999086329921 38.95150307260533 285.4397447223785 38.95150307260533 C284.8713069504441 38.95150307260533 284.2808761536869 38.80262653910367 283.6684520223329 38.50487339465685 L283.6684520223329 39.33722870356084 C284.10154746761623 39.57069421703391 284.68521125129894 39.687426973770435 285.4194433733809 39.687426973770435 C286.12322347196636 39.687426973770435 286.66966811582 39.54447164124526 287.05877730494177 39.25856097619491 Z " fill="#000000" fill-rule="evenodd" stroke="#000000" stroke-width="0.72" />

            <path d="M293.9713866386444 38.9058250373606 C293.8123598178614 38.92950997033903 293.67363310698005 38.941352398106496 293.5552089841924 38.941352398106496 C293.28114077272403 38.941352398106496 293.06713030567505 38.85507166486645 292.9131788221415 38.68251019838635 C292.75922733860796 38.509948731906256 292.6822509772931 38.262949037397085 292.6822509772931 37.94151095997183 L292.6822509772931 34.723747143843 L294.2911328853575 34.723747143843 L294.2911328853575 34.013199928924955 L292.6822509772931 34.013199928924955 L292.6822509772931 32.734214942072484 L292.1391898916057 32.734214942072484 L291.7737656096479 33.921843858435494 L290.97693766148984 34.287268140393344 L290.97693766148984 34.723747143843 L291.76361493514906 34.723747143843 L291.76361493514906 37.9668876462189 C291.76361493514906 39.11391386458659 292.3083673868876 39.687426973770435 293.3978735294606 39.687426973770435 C293.5805856704395 39.687426973770435 293.7607601427937 39.66966329339749 293.9383969465232 39.63413593265159 C294.1160337502527 39.598608571905686 294.2471462161639 39.56223532242491 294.33173558335284 39.52501618178917 L294.33173558335284 38.824619641369964 C294.2505301873622 38.85507166486645 294.13041345942736 38.88214010438217 293.9713866386444 38.9058250373606 Z " fill="#000000" fill-rule="evenodd" stroke="#000000" stroke-width="0.72" />
            <path d="M299.5948603109957 38.92105104910884 C300.0550242216093 38.41013376600111 300.28510617691614 37.699586551083065 300.28510617691614 36.78940940435472 C300.28510617691614 35.90291716479031 300.0541783320678 35.20167473482953 299.5923226423711 34.685682114472385 C299.13046695267434 34.16968949411524 298.5070463605379 33.91169318393666 297.7220608659618 33.91169318393666 C296.9032402027549 33.91169318393666 296.26713044143094 34.16461436338182 295.8137340601819 34.67045610272414 C295.36033726590085 35.17629804858246 295.1336388687604 35.882615815792654 295.1336388687604 36.78940940435472 C295.1336388687604 37.371381357325255 295.2385295849469 37.88229874369099 295.44830977822403 38.32216125367792 C295.6580903845332 38.76202381529385 295.95753528224867 39.09953374237992 296.34664447137044 39.33469103493613 C296.7357536604922 39.56984832749234 297.18238333844073 39.687426973770435 297.6865335052159 39.687426973770435 C298.4985874651222 39.687426973770435 299.13469640038215 39.43196833221657 299.5948603109957 38.92105104910884 Z M296.49129158297876 38.385602969295604 C296.21553200545924 38.021870518049894 296.07765159715143 37.489805944773934 296.07765159715143 36.78940940435472 C296.07765159715143 35.38184931044175 296.61732871164054 34.678069108598265 297.6966841797147 34.678069108598265 C298.23466992815264 34.678069108598265 298.6432345767305 34.854859919528195 298.9223781254483 35.20844185116208 C299.2015216741661 35.56202367953796 299.34109344852504 36.08901286393551 299.34109344852504 36.78940940435472 C299.34109344852504 37.489805944773934 299.2023679767397 38.021870518049894 298.92491579407306 38.385602969295604 C298.6474636114064 38.749335497984816 298.24312923660034 38.93120172360767 297.71191019146295 38.93120172360767 C297.173924443025 38.93120172360767 296.7670511604983 38.749335497984816 296.49129158297876 38.385602969295604 Z " fill="#000000" fill-rule="evenodd" stroke="#000000" stroke-width="0.72" />
          </g>
        </g>
        <g>
          <g>
            <path d="M327.15476457655063 11.505920228782145 L328.12415399118885 11.505920228782145 L325.23121175902253 4.05532514664155 L324.38870577561977 4.05532514664155 L321.490688206204 11.505920228782145 L322.4347009345951 11.505920228782145 L323.31780961599327 9.206792454797338 L326.2615052206537 9.206792454797338 L327.15476457655063 11.505920228782145 Z M325.9823616719359 8.379512483142769 L323.63248052545697 8.379512483142769 L324.4749865088598 6.131138081652111 C324.5866439283469 5.79616582319075 324.6932260105846 5.425666203983494 324.7947327555729 5.019639224030328 L325.15000636303193 6.131138081652111 L325.9823616719359 8.379512483142769 Z " fill="#000000" fill-rule="evenodd" stroke="#000000" stroke-width="0.72" />

















            <path d="M375.0456468620265 4.0857771701380585 L375.0456468620265 11.505920228782145 L377.6543702082256 11.505920228782145 C378.46642416813194 11.505920228782145 379.09915119735365 11.31982452318332 379.55254633950665 10.947633131346542 C380.00594148165965 10.57544175887064 380.23264153092816 10.057757281986852 380.23264153092816 9.394579933025682 C380.23264153092816 8.903963998915607 380.09814509381863 8.509779472544416 379.8291522195997 8.212026353912094 C379.5601593453807 7.914273132021773 379.1397538953489 7.7163349792946105 378.5679309131202 7.618211895730596 L378.5679309131202 7.567458523236439 C379.0280948237338 7.48286956907953 379.3782930939434 7.297619759475895 379.61852572374903 7.011709094425541 C379.8587567014266 6.7257985326331875 379.9788746684575 6.362911919300048 379.9788746684575 5.923049254426118 C379.9788746684575 5.290323877332436 379.75809749810793 4.82593051901101 379.3165431574089 4.529869179461826 C378.87498881670984 4.233807839912643 378.15682859591766 4.0857771701380585 377.1620624950324 4.0857771701380585 L375.0456468620265 4.0857771701380585 Z M375.9795089159188 7.242636939273908 L375.9795089159188 4.882605118296141 L377.20774053027714 4.882605118296141 C377.8336971389103 4.882605118296141 378.2913250330271 4.972269203186458 378.5806192562437 5.151597992515107 C378.86991347946037 5.330926781843757 379.0145605910687 5.62360435671066 379.0145605910687 6.029631336663826 C379.0145605910687 6.466110340113478 378.88260182258387 6.7773976914109095 378.61868428561434 6.96349339055611 C378.3547667486448 7.149589192959311 377.93182362998823 7.242636939273908 377.3498499732607 7.242636939273908 L375.9795089159188 7.242636939273908 Z M375.9795089159188 8.02423887568375 L377.4056786830043 8.02423887568375 C378.01471915293405 8.02423887568375 378.47149950538136 8.129974965121887 378.7760197403462 8.341447453772162 C379.08053997531107 8.552919839164435 379.2328000927935 8.880279091751671 379.2328000927935 9.323525211533877 C379.2328000927935 9.790456238480017 379.08900052285475 10.13896267797749 378.80139642659327 10.369044684913284 C378.5137939824598 10.599126640220078 378.07223964176075 10.714167617873471 377.4767334044961 10.714167617873471 L375.9795089159188 10.714167617873471 L375.9795089159188 8.02423887568375 Z " fill="#000000" fill-rule="evenodd" stroke="#000000" stroke-width="0.72" />


















            <path d="M431.69656123999187 5.603303007712995 C432.1533415924392 5.068700610925326 432.7809883280274 4.801399722305504 433.57951135952464 4.801399722305504 C434.11072668737404 4.801399722305504 434.672403951488 4.936741842440561 435.26452332633033 5.207426702258672 L435.640098282787 4.415674091349999 C435.0581295824435 4.124687882534229 434.37464422434357 3.979195087900351 433.5896620340235 3.979195087900351 C432.8588134701078 3.979195087900351 432.22355372864547 4.13483855703305 431.68387289686837 4.446126114846479 C431.14419206509126 4.757413672659907 430.73308974788864 5.200659379410114 430.45056594526056 5.775864474193099 C430.1680421426325 6.351069259202083 430.0267752849345 7.021013776124802 430.0267752849345 7.785698024961263 C430.0267752849345 9.003778964820759 430.3219874306861 9.94525402458716 430.91242163495735 10.610123204260468 C431.50285583922863 11.274992383933776 432.3445093245778 11.60742697377043 433.4374019165411 11.60742697377043 C433.81636043116407 11.60742697377043 434.1513326896254 11.586279735231207 434.44231869192515 11.543985258152752 C434.73330799848094 11.501690781175135 435.03613315010665 11.423023050481554 435.35080405957035 11.30798207605497 L435.35080405957035 10.49592811614864 C434.69101021714647 10.69217448979267 434.0971957589649 10.790297676614685 433.5693606850258 10.790297676614685 C432.7505363045309 10.790297676614685 432.11950931503253 10.530609561538478 431.6762598909943 10.011233408829554 C431.23301046695605 9.49185717867713 431.0113907113209 8.75339576377431 431.0113907113209 7.795848699460095 C431.0113907113209 6.868753968416368 431.23978088754455 6.137905404500664 431.69656123999187 5.603303007712995 Z " fill="#000000" fill-rule="evenodd" stroke="#000000" stroke-width="0.72" />

















            <path d="M487.812027538144 10.533993145519247 C488.4802868844956 9.886041808306322 488.81440664490344 8.949642085789339 488.81440664490344 7.7247939779682895 C488.81440664490344 6.567617085101769 488.4929752276191 5.6718200605801 487.8500925675146 5.0374029044032795 C487.2072165159221 4.402985748226459 486.3088818227758 4.0857771701380585 485.15508848807553 4.0857771701380585 L482.8711867258389 4.0857771701380585 L482.8711867258389 11.505920228782145 L484.9368489863507 11.505920228782145 C486.18538194970665 11.505920228782145 487.1437781045604 11.181944540814799 487.812027538144 10.533993145519247 Z M487.13193234672246 5.610916013587129 C487.5971682903294 6.0964564039317874 487.829791218517 6.811233273073674 487.829791218517 7.7552460014647835 C487.829791218517 9.72109329607136 486.82487444313284 10.70401694337464 484.81504089236466 10.70401694337464 L483.80504877973124 10.70401694337464 L483.80504877973124 4.882605118296141 L485.02312971959077 4.882605118296141 C485.96376219407165 4.882605118296141 486.6666964031155 5.125375623242471 487.13193234672246 5.610916013587129 Z " fill="#000000" fill-rule="evenodd" stroke="#000000" stroke-width="0.72" />


















            <path d="M543.2067959468793 11.505920228782145 L543.2067959468793 10.683715594376977 L539.9941074679999 10.683715594376977 L539.9941074679999 8.034389550182581 L543.019008468651 8.034389550182581 L543.019008468651 7.222335590276245 L539.9941074679999 7.222335590276245 L539.9941074679999 4.907981804543212 L543.2067959468793 4.907981804543212 L543.2067959468793 4.0857771701380585 L539.0602454141076 4.0857771701380585 L539.0602454141076 11.505920228782145 L543.2067959468793 11.505920228782145 Z " fill="#000000" fill-rule="evenodd" stroke="#000000" stroke-width="0.72" />
          </g>
        </g>
      </g>
    </g>
  </g>
</svg>