<?xml version="1.0" encoding="UTF-8" standalone="no"?>
<svg xmlns="http://www.w3.org/2000/svg" version="1.1" width="8.505138973873915in" height="1.01in" viewBox="0 0 612.3700061189219 72.72">
  <g>
    <g>
      <g>
        <path d="M0 0 L288.3825639204545 0 L288.3825639204545 72.72 L0 72.72 L0 0 Z " fill="none" stroke="#000000" stroke-width="0.72" />
        <g>

        </g>
      </g>
      <g>
        <g>
          <path d="M18.359999999999985 19.439999999999998 L54.359999999999985 19.439999999999998 L54.359999999999985 55.44 L18.359999999999985 55.44 L18.359999999999985 19.439999999999998 Z " fill="none" stroke="#000000" stroke-width="0.72" />
          <g>

          </g>
        </g>
        <g>
          <path d="M234.35999999999999 19.439999999999998 L270.36 19.439999999999998 L270.36 55.44 L234.35999999999999 55.44 L234.35999999999999 19.439999999999998 Z " fill="none" stroke="#000000" stroke-width="0.72" />
          <g>

          </g>
        </g>
      </g>
      <g>
        <path d="M32.39999999999999 45.72 C32.39999999999999 48.700341132267596 29.9803411322676 51.120000000000005 27 51.120000000000005 C24.0196588677324 51.120000000000005 21.60000000000001 48.700341132267596 21.60000000000001 45.72 C21.60000000000001 42.7396588677324 24.0196588677324 40.32 27 40.32 C29.9803411322676 40.32 32.39999999999999 42.7396588677324 32.39999999999999 45.72 Z " fill="none" stroke="#000000" stroke-width="0.72" />
      </g>
      <g>
        <path d="M45 20.520000000000003 L51.23538290724795 31.319999999999993 L38.76461709275205 31.32 L45 20.520000000000003 Z " fill="none" stroke="#000000" stroke-width="0.72" />
      </g>
      <g>
        <path d="M27 25.200000000000003 L28.587020181189686 28.415654115187643 L32.13570518799382 28.93130823037528 L29.567852593996918 31.43434588481236 L30.17404036237936 34.96869176962472 L27 33.3 L23.82595963762064 34.96869176962472 L24.432147406003082 31.43434588481236 L21.86429481200618 28.931308230375294 L25.412979818810314 28.415654115187643 L27 25.200000000000003 Z " fill="#000000" fill-rule="evenodd" stroke="#000000" stroke-width="0.72" />
      </g>
      <g>
        <path d="M39.60000000000001 40.32 L50.39999999999999 40.32 L50.39999999999999 51.120000000000005 L39.60000000000001 51.120000000000005 L39.60000000000001 40.32 Z " fill="none" stroke="#000000" stroke-width="0.72" />
        <g>

        </g>
      </g>
      <g>
        <path d="M124.87105631629007 19.391189038349857 L124.96881096165014 55.391056316290076 L88.96894368370994 55.48881096165014 L88.87118903834985 19.48894368370992 L124.87105631629007 19.391189038349857 Z " fill="none" stroke="#000000" stroke-width="0.72" />
        <g>

        </g>
      </g>
      <g>
        <path d="M98.62927751508414 33.502498167859386 C95.64894737051137 33.510591006482635 93.22272706521233 31.097511417545142 93.21463422658908 28.117181272972374 C93.20654138796584 25.136851128399606 95.61962097690335 22.710630823100576 98.59995112147611 22.70253798447733 C101.58028126604887 22.694445145854086 104.00650157134791 25.107524734791575 104.01459440997115 28.087854879364343 C104.0226872485944 31.06818502393711 101.60960765965692 33.49440532923614 98.62927751508414 33.502498167859386 Z " fill="none" stroke="#000000" stroke-width="0.72" />
      </g>
      <g>
        <path d="M123.86339873551832 46.03402346338642 L113.0803701533802 52.298709776107316 L113.0465069508923 39.827989937881554 L123.86339873551832 46.03402346338642 Z " fill="#000000" fill-rule="evenodd" stroke="#000000" stroke-width="0.72" />
      </g>
      <g>
        <path d="M122.01452804894126 28.038977556684323 L118.80319519439888 29.634723696069656 L118.29717910373932 33.18479583055089 L115.78717791287586 30.62374946902392 L112.25449110461867 31.239532189463596 L113.91455791140473 28.060972351890342 L112.23725348295295 24.8914748683257 L115.7732323840057 25.488063214957066 L118.26928804599898 22.91342332241718 L118.79457638356602 26.460695035500713 L122.01452804894126 28.038977556684323 Z " fill="none" stroke="#000000" stroke-width="0.72" />
      </g>
      <g>
        <path d="M104.04880853584717 40.687808426643414 L104.07813492945519 51.48776861002548 L93.27817474607313 51.5170950036335 L93.24884835246512 40.71713482025144 L104.04880853584717 40.687808426643414 Z " fill="none" stroke="#000000" stroke-width="0.72" />
        <g>

        </g>
      </g>
      <g>
        <path d="M199.08 55.44 L163.08 55.440000000000005 L163.07999999999998 19.439999999999998 L199.07999999999998 19.439999999999998 L199.08 55.44 Z " fill="none" stroke="#000000" stroke-width="0.72" />
        <g>

        </g>
      </g>
      <g>
        <path d="M185.04000000000002 29.159999999999997 C185.04000000000002 26.179658867732396 187.4596588677324 23.760000000000005 190.44 23.760000000000005 C193.4203411322676 23.760000000000005 195.84 26.179658867732396 195.84 29.159999999999997 C195.84 32.140341132267594 193.4203411322676 34.559999999999995 190.44 34.559999999999995 C187.4596588677324 34.559999999999995 185.04000000000002 32.140341132267594 185.04000000000002 29.159999999999997 Z " fill="none" stroke="#000000" stroke-width="0.72" />
      </g>
      <g>
        <path d="M172.44 54.36 L166.20461709275204 43.56 L178.67538290724795 43.559999999999995 L172.44 54.36 Z " fill="none" stroke="#000000" stroke-width="0.72" />
      </g>
      <g>
        <path d="M190.44 52.56 L188.85297981881033 49.344345884812356 L185.30429481200616 48.82869176962471 L187.87214740600308 46.325654115187646 L187.26595963762065 42.791308230375286 L190.44 44.46 L193.61404036237934 42.79130823037528 L193.00785259399692 46.32565411518764 L195.57570518799383 48.82869176962471 L192.02702018118967 49.344345884812356 L190.44 52.56 Z " fill="none" stroke="#000000" stroke-width="0.72" />
      </g>
      <g>
        <path d="M177.84 34.559999999999995 L167.04000000000002 34.559999999999995 L167.04 23.760000000000005 L177.84 23.760000000000005 L177.84 34.559999999999995 Z " fill="#000000" fill-rule="evenodd" stroke="#000000" stroke-width="0.72" />
        <g>

        </g>
      </g>
      <g>
        <path d="M323.9874421984675 0 L612.370006118922 0 L612.370006118922 72.72 L323.9874421984675 72.72 L323.9874421984675 0 Z " fill="none" stroke="#000000" stroke-width="0.72" />
        <g>

        </g>
      </g>
      <g>
        <path d="M342.1787241586947 18.36 L378.1787241586947 18.36 L378.1787241586947 54.36 L342.1787241586947 54.36 L342.1787241586947 18.36 Z " fill="none" stroke="#000000" stroke-width="0.72" />
        <g>

        </g>
      </g>
      <g>
        <path d="M374.57872415869474 27.36 C374.57872415869474 30.3403411322676 372.1590652909623 32.76 369.1787241586947 32.76 C366.1983830264271 32.76 363.7787241586947 30.3403411322676 363.7787241586947 27.36 C363.7787241586947 24.3796588677324 366.1983830264271 21.96 369.1787241586947 21.96 C372.1590652909623 21.96 374.57872415869474 24.3796588677324 374.57872415869474 27.36 Z " fill="none" stroke="#000000" stroke-width="0.72" />
      </g>
      <g>
        <path d="M351.1787241586947 38.16 L357.4141070659427 48.959999999999994 L344.9433412514468 48.96 L351.1787241586947 38.16 Z " fill="none" stroke="#000000" stroke-width="0.72" />
      </g>
      <g>
        <path d="M351.1787241586947 21.96 L352.76574433988435 25.17565411518764 L356.3144293466886 25.691308230375277 L353.7465767526917 28.194345884812357 L354.35276452107405 31.728691769624717 L351.1787241586947 30.059999999999995 L348.00468379631536 31.728691769624717 L348.6108715646978 28.194345884812357 L346.04301897070087 25.691308230375284 L349.59170397750506 25.17565411518764 L351.1787241586947 21.96 Z " fill="#000000" fill-rule="evenodd" stroke="#000000" stroke-width="0.72" />
      </g>
      <g>
        <path d="M363.7787241586947 39.96 L374.57872415869474 39.96 L374.57872415869474 50.76 L363.7787241586947 50.76 L363.7787241586947 39.96 Z " fill="none" stroke="#000000" stroke-width="0.72" />
        <g>

        </g>
      </g>
      <g>
        <path d="M450.1297804749848 18.31118903834986 L450.2275351203449 54.31105631629008 L414.2276678424046 54.40881096165014 L414.1299131970446 18.40894368370993 L450.1297804749848 18.31118903834986 Z " fill="none" stroke="#000000" stroke-width="0.72" />
        <g>

        </g>
      </g>
      <g>
        <path d="M422.47338735549874 32.759980091691034 C419.493057210926 32.76807293031428 417.066836905627 30.354993341376783 417.0587440670037 27.374663196804015 C417.05065122838045 24.394333052231246 419.463730817318 21.96811274693221 422.4440609618907 21.960019908308965 C425.4243911064635 21.95192706968572 427.8506114117625 24.365006658623216 427.85870425038576 27.345336803195984 C427.866797089009 30.325666947768752 425.4537175000715 32.751887253067785 422.47338735549874 32.759980091691034 Z " fill="none" stroke="#000000" stroke-width="0.72" />
      </g>
      <g>
        <path d="M441.1787241586947 52.559999999999995 L434.9433412514467 41.76 L447.4141070659427 41.75999999999999 L441.1787241586947 52.559999999999995 Z " fill="#000000" fill-rule="evenodd" stroke="#000000" stroke-width="0.72" />
      </g>
      <g>
        <path d="M446.5787042503857 27.345336803195984 L443.36737139584335 28.941082942581318 L442.86135530518385 32.49115507706255 L440.3513541143204 29.93010871553558 L436.81866730606316 30.54589143597525 L438.47873411284917 27.367331598402004 L436.8014296843974 24.197834114837363 L440.3374085854502 24.79442246146872 L442.8334642474435 22.219782568928835 L443.3587525850105 25.767054282012374 L446.5787042503857 27.345336803195984 Z " fill="none" stroke="#000000" stroke-width="0.72" />
      </g>
      <g>
        <path d="M427.84404105358175 39.94535671150496 L427.8733674471898 50.74531689488702 L417.0734072638077 50.77464328849504 L417.04408087019965 39.97468310511297 L427.84404105358175 39.94535671150496 Z " fill="none" stroke="#000000" stroke-width="0.72" />
        <g>

        </g>
      </g>
      <g>
        <path d="M486.1787241586947 54.36 L486.1787241586947 18.360000000000007 L522.1787241586946 18.359999999999992 L522.1787241586946 54.36 L486.1787241586947 54.36 Z " fill="none" stroke="#000000" stroke-width="0.72" />
        <g>

        </g>
      </g>
      <g>
        <path d="M513.1787241586946 39.96 C516.1590652909623 39.96 518.5787241586947 42.3796588677324 518.5787241586947 45.36 C518.5787241586947 48.340341132267596 516.1590652909623 50.76 513.1787241586946 50.76 C510.19838302642705 50.76 507.77872415869473 48.340341132267596 507.77872415869473 45.36 C507.77872415869473 42.3796588677324 510.19838302642705 39.96 513.1787241586946 39.96 Z " fill="#000000" fill-rule="evenodd" stroke="#000000" stroke-width="0.72" />
      </g>
      <g>
        <path d="M487.9787241586947 27.36 L498.77872415869473 21.124617092752032 L498.77872415869473 33.59538290724795 L487.9787241586947 27.36 Z " fill="none" stroke="#000000" stroke-width="0.72" />
      </g>
      <g>
        <path d="M489.77872415869473 45.36 L492.9943782738824 43.77297981881032 L493.51003238907 40.22429481200617 L496.01307004350707 42.79214740600308 L499.5474159283194 42.18595963762064 L497.8787241586947 45.36 L499.5474159283194 48.53404036237935 L496.01307004350707 47.92785259399691 L493.51003238907 50.49570518799383 L492.9943782738824 46.94702018118967 L489.77872415869473 45.36 Z " fill="none" stroke="#000000" stroke-width="0.72" />
      </g>
      <g>
        <path d="M507.77872415869473 32.760000000000005 L507.77872415869473 21.96 L518.5787241586947 21.959999999999994 L518.5787241586947 32.76 L507.77872415869473 32.760000000000005 Z " fill="none" stroke="#000000" stroke-width="0.72" />
        <g>

        </g>
      </g>
      <g>
        <path d="M558.1787241586946 18.36 L594.1787241586946 18.36 L594.1787241586946 54.36 L558.1787241586946 54.36 L558.1787241586946 18.36 Z " fill="none" stroke="#000000" stroke-width="0.72" />
        <g>

        </g>
      </g>
      <g>
        <path d="M572.5787241586947 45.36 C572.5787241586947 48.340341132267596 570.1590652909623 50.76 567.1787241586946 50.76 C564.198383026427 50.76 561.7787241586948 48.340341132267596 561.7787241586948 45.36 C561.7787241586948 42.3796588677324 564.198383026427 39.96 567.1787241586946 39.96 C570.1590652909623 39.96 572.5787241586947 42.3796588677324 572.5787241586947 45.36 Z " fill="#000000" fill-rule="evenodd" stroke="#000000" stroke-width="0.72" />
      </g>
      <g>
        <path d="M585.1787241586946 20.159999999999997 L591.4141070659427 30.959999999999994 L578.9433412514468 30.96 L585.1787241586946 20.159999999999997 Z " fill="none" stroke="#000000" stroke-width="0.72" />
      </g>
      <g>
        <path d="M567.1787241586946 21.96 L568.7657443398843 25.17565411518764 L572.3144293466885 25.691308230375277 L569.7465767526917 28.194345884812357 L570.352764521074 31.728691769624717 L567.1787241586946 30.059999999999995 L564.0046837963154 31.728691769624717 L564.6108715646978 28.194345884812357 L562.0430189707008 25.691308230375284 L565.591703977505 25.17565411518764 L567.1787241586946 21.96 Z " fill="none" stroke="#000000" stroke-width="0.72" />
      </g>
      <g>
        <path d="M579.7787241586948 39.96 L590.5787241586947 39.96 L590.5787241586947 50.76 L579.7787241586948 50.76 L579.7787241586948 39.96 Z " fill="none" stroke="#000000" stroke-width="0.72" />
        <g>

        </g>
      </g>
      <g>
        <g>
          <path d="M362.4638804086947 14.759999999999998 L363.47110697119473 14.759999999999998 L360.46524759619473 7.018593749999994 L359.5898569711947 7.018593749999994 L356.57872415869474 14.759999999999998 L357.5595835336947 14.759999999999998 L358.47716165869474 12.371132812499994 L361.53575540869474 12.371132812499994 L362.4638804086947 14.759999999999998 Z M361.24571634619474 11.51156249999999 L358.80411478369473 11.51156249999999 L359.6795054086947 9.1754296875 C359.7955210336947 8.8273828125 359.9062632211947 8.442421874999994 360.0117319711947 8.020546874999994 L360.3808725961947 9.1754296875 L361.24571634619474 11.51156249999999 Z " fill="none" stroke="#000000" stroke-width="0.72" />
        </g>
      </g>
      <g>
        <g>
          <path d="M429.6281382211947 7.050234375000002 L429.6281382211947 14.759999999999998 L432.33868509619475 14.759999999999998 C433.18243509619475 14.759999999999998 433.8398570784831 14.566640618294475 434.31095072119473 14.179921874999998 C434.78204447119475 13.793203071355817 435.0175913461947 13.25531244635581 435.0175913461947 12.56624999999999 C435.0175913461947 12.05648437499999 434.87784525244473 11.646914062499999 434.5983530649447 11.3375390625 C434.3188608774447 11.0281640625 433.8820444711948 10.82249999999999 433.28790384619475 10.72054687499999 L433.28790384619475 10.66781249999999 C433.76602884619473 10.57992187499999 434.12989603369476 10.387441406249994 434.37950540869474 10.090371093749994 C434.6291147836947 9.793300781249993 434.7539194711947 9.416249999999998 434.7539194711947 8.959218749999998 C434.7539194711947 8.301796874999997 434.52452493994474 7.819277343750002 434.06573587744475 7.511660156250002 C433.60694681494476 7.204042968750002 432.86075540869473 7.050234375000002 431.8271616586947 7.050234375000002 L429.6281382211947 7.050234375000002 Z M430.59845072119475 10.330312499999998 L430.59845072119475 7.878164062499991 L431.87462259619474 7.878164062499991 C432.52501311390637 7.878164062499991 433.00050150244476 7.971327910423281 433.30108743994475 8.157656250000002 C433.60167337744474 8.343984589576724 433.7519663461947 8.6480859375 433.7519663461947 9.0699609375 C433.7519663461947 9.523476562499999 433.61485697119474 9.846914062499998 433.34063822119475 10.040273437499998 C433.06641947119476 10.233632812499998 432.62696634619476 10.330312499999998 432.02227884619475 10.330312499999998 L430.59845072119475 10.330312499999998 Z M430.59845072119475 11.14242187499999 L432.0802866586947 11.14242187499999 C432.7130991586947 11.14242187499999 433.1877085336947 11.252285048961628 433.5041147836947 11.47201171874999 C433.8205210336947 11.69173828124999 433.9787241586947 12.031874999999998 433.9787241586947 12.492421874999998 C433.9787241586947 12.977578124999997 433.8293102034831 13.33968744635582 433.5304819711947 13.57875 C433.2316538461947 13.817812499999999 432.77286478369473 13.93734374999999 432.15411478369475 13.93734374999999 L430.59845072119475 13.93734374999999 L430.59845072119475 11.14242187499999 Z " fill="none" stroke="#000000" stroke-width="0.72" />
        </g>
      </g>
      <g>
        <g>
          <path d="M502.9728647836947 8.626992187499994 C503.4474741586947 8.071523437499994 504.09962259619476 7.793789062499997 504.92931009619474 7.793789062499997 C505.4812633284831 7.793789062499997 506.0648571857715 7.934413847923276 506.68009134619473 8.215664062499997 L507.0703257211947 7.393007812500002 C506.4656382211947 7.090664062500002 505.75548197119474 6.939492187499994 504.93985697119473 6.939492187499994 C504.18048197119475 6.939492187499994 503.52042327015636 7.101210722923275 502.9596811899447 7.424648437499997 C502.39893894880055 7.748086152076718 501.9717905113005 8.208632597923279 501.6782358774447 8.8062890625 C501.38468118994473 9.4039453125 501.23790384619474 10.100039062499993 501.23790384619474 10.894570312499994 C501.23790384619474 12.160195312499994 501.5446421542668 13.13841796875 502.15811868994473 13.82923828125 C502.7715953597331 14.520058593749999 503.6461070784831 14.865468749999998 504.78165384619473 14.865468749999998 C505.17540384619474 14.865468749999998 505.52345072119476 14.843496093749998 505.82579447119474 14.799550781249998 C506.1281382211947 14.755605465397236 506.44278665869473 14.673867184147237 506.7697397836947 14.5543359375 L506.7697397836947 13.7105859375 C506.0841929086947 13.914492187499999 505.46720072119473 14.01644531249999 504.91876322119475 14.01644531249999 C504.0679820784831 14.01644531249999 503.4123178014064 13.746621066927904 502.95177103369474 13.206972656249995 C502.49122415869476 12.667324326038356 502.2609507211947 11.90003916978835 502.2609507211947 10.90511718749999 C502.2609507211947 9.94183615207671 502.4982554086947 9.182461152076716 502.9728647836947 8.626992187499994 Z " fill="none" stroke="#000000" stroke-width="0.72" />
        </g>
      </g>
      <g>
        <g>
          <path d="M578.7618296274447 13.75013671875 C579.4561655649447 13.07689453125 579.8033335336947 12.103945312499999 579.8033335336947 10.831289062499998 C579.8033335336947 9.628945312499997 579.469348944118 8.698183593750002 578.8013804086947 8.039003906250002 C578.1334116586947 7.379824218750002 577.2000132211947 7.050234375000002 576.0011850961947 7.050234375000002 L573.6281382211947 7.050234375000002 L573.6281382211947 14.759999999999998 L575.7744272836946 14.759999999999998 C577.0716929086947 14.759999999999998 578.0674939045215 14.423378912955522 578.7618296274447 13.75013671875 Z M578.0551890024446 8.63490234375 C578.5385874399446 9.13939453125 578.7802866586946 9.8820703125 578.7802866586946 10.8629296875 C578.7802866586946 12.9055078125 577.7361460336948 13.926796874999994 575.6478647836948 13.926796874999994 L574.5984507211947 13.926796874999994 L574.5984507211947 7.878164062499991 L575.8640757211947 7.878164062499991 C576.8414193639063 7.878164062499991 577.5717904576563 8.13041037082672 578.0551890024446 8.63490234375 Z " fill="none" stroke="#000000" stroke-width="0.72" />
        </g>
      </g>
    </g>
    <g>

    </g>
  </g>
</svg>